<svg xmlns="http://www.w3.org/2000/svg" xmlns:xlink="http://www.w3.org/1999/xlink" width="500" zoomAndPan="magnify" viewBox="0 0 375 374.999991" height="500" preserveAspectRatio="xMidYMid meet" version="1.0"><defs><g/></defs><g fill="#ff8d55" fill-opacity="0.4"><g transform="translate(146.942278, 162.627561)"><g><path d="M 62.011719 -21.078125 C 58.039062 -16.449219 52.179688 -13.613281 45.28125 -13.613281 C 31.949219 -13.613281 22.496094 -24.484375 22.496094 -37.8125 C 22.496094 -51.140625 31.949219 -62.011719 45.28125 -62.011719 C 52.179688 -62.011719 58.039062 -59.175781 62.011719 -54.542969 L 72.691406 -65.128906 C 65.699219 -72.125 55.960938 -76.472656 45.28125 -76.472656 C 23.914062 -76.472656 6.617188 -59.175781 6.617188 -37.8125 C 6.617188 -16.449219 23.914062 0.851562 45.28125 0.851562 C 55.960938 0.851562 65.699219 -3.496094 72.691406 -10.492188 Z M 62.011719 -21.078125 "/></g></g></g><g fill="#e2a165" fill-opacity="1"><g transform="translate(152.458131, 160.510223)"><g><path d="M 62.011719 -21.078125 C 58.039062 -16.449219 52.179688 -13.613281 45.28125 -13.613281 C 31.949219 -13.613281 22.496094 -24.484375 22.496094 -37.8125 C 22.496094 -51.140625 31.949219 -62.011719 45.28125 -62.011719 C 52.179688 -62.011719 58.039062 -59.175781 62.011719 -54.542969 L 72.691406 -65.128906 C 65.699219 -72.125 55.960938 -76.472656 45.28125 -76.472656 C 23.914062 -76.472656 6.617188 -59.175781 6.617188 -37.8125 C 6.617188 -16.449219 23.914062 0.851562 45.28125 0.851562 C 55.960938 0.851562 65.699219 -3.496094 72.691406 -10.492188 Z M 62.011719 -21.078125 "/></g></g></g><g fill="#ffffff" fill-opacity="0.4"><g transform="translate(4.874719, 254.675383)"><g><path d="M 83.46875 -44.144531 L 48.210938 -44.144531 L 48.210938 -29.683594 L 66.925781 -29.683594 C 63.996094 -20.324219 55.867188 -13.519531 45.28125 -13.519531 C 31.949219 -13.519531 22.496094 -24.386719 22.496094 -37.71875 C 22.496094 -51.046875 31.949219 -61.917969 45.28125 -61.917969 C 50.003906 -61.917969 54.257812 -60.59375 57.664062 -58.230469 L 68.25 -68.816406 C 61.820312 -73.542969 53.882812 -76.378906 45.28125 -76.378906 C 23.914062 -76.378906 6.617188 -59.082031 6.617188 -37.71875 C 6.617188 -16.355469 23.914062 0.945312 45.28125 0.945312 C 66.644531 0.945312 83.941406 -16.355469 83.941406 -37.71875 C 83.941406 -39.890625 83.753906 -42.066406 83.46875 -44.144531 Z M 83.46875 -44.144531 "/></g></g></g><g fill="#ffffff" fill-opacity="0.4"><g transform="translate(95.42646, 254.675383)"><g><path d="M 50.101562 -75.625 L 50.101562 -26.183594 C 50.101562 -18.527344 43.957031 -12.382812 36.394531 -12.382812 L 34.503906 -12.382812 C 26.941406 -12.382812 20.796875 -18.527344 20.796875 -26.183594 L 20.796875 -75.625 L 6.617188 -75.625 L 6.617188 -26.183594 C 6.617188 -10.871094 19.1875 1.703125 34.503906 1.703125 L 36.394531 1.703125 C 51.707031 1.703125 64.183594 -10.871094 64.183594 -26.183594 L 64.183594 -75.625 Z M 50.101562 -75.625 "/></g></g></g><g fill="#ffffff" fill-opacity="0.4"><g transform="translate(166.223174, 254.675383)"><g><path d="M 50.476562 -61.632812 L 50.476562 -75.71875 L 6.617188 -75.71875 L 6.617188 0 L 50.476562 0 L 50.476562 -14.085938 L 20.796875 -14.085938 L 20.796875 -30.910156 L 38.472656 -30.910156 L 38.472656 -44.996094 L 20.796875 -44.996094 L 20.796875 -61.632812 Z M 50.476562 -61.632812 "/></g></g></g><g fill="#ffffff" fill-opacity="0.4"><g transform="translate(223.314255, 254.675383)"><g><path d="M 38 0.945312 L 39.703125 0.945312 C 55.960938 0.851562 65.226562 -9.738281 65.886719 -20.230469 C 66.644531 -31.195312 58.324219 -43.484375 38.285156 -46.035156 L 38.09375 -46.035156 C 30.816406 -46.886719 23.253906 -50.476562 23.632812 -55.773438 C 23.914062 -59.554688 29.585938 -63.050781 39.890625 -62.578125 L 40.175781 -62.578125 C 45.847656 -62.578125 52.652344 -59.835938 56.148438 -57.285156 L 64.28125 -68.628906 C 58.890625 -72.503906 49.4375 -76.472656 40.363281 -76.472656 C 20.324219 -77.515625 10.585938 -67.304688 9.738281 -56.90625 C 9.265625 -50.855469 11.816406 -44.902344 16.730469 -40.363281 C 21.550781 -35.921875 28.453125 -33.085938 36.582031 -32.234375 C 47.644531 -30.722656 52.273438 -25.617188 51.992188 -21.175781 C 51.707031 -17.109375 47.359375 -13.046875 39.511719 -13.046875 L 39.039062 -13.046875 C 38.945312 -13.046875 28.640625 -12.476562 22.308594 -17.675781 C 20.703125 -18.90625 19.378906 -20.417969 18.148438 -22.214844 L 6.617188 -14.367188 C 8.507812 -11.53125 10.871094 -8.980469 13.519531 -6.804688 C 22.121094 0.1875 33.464844 0.945312 38 0.945312 Z M 38 0.945312 "/></g></g></g><g fill="#ffffff" fill-opacity="0.4"><g transform="translate(295.81238, 254.675383)"><g><path d="M 38 0.945312 L 39.703125 0.945312 C 55.960938 0.851562 65.226562 -9.738281 65.886719 -20.230469 C 66.644531 -31.195312 58.324219 -43.484375 38.285156 -46.035156 L 38.09375 -46.035156 C 30.816406 -46.886719 23.253906 -50.476562 23.632812 -55.773438 C 23.914062 -59.554688 29.585938 -63.050781 39.890625 -62.578125 L 40.175781 -62.578125 C 45.847656 -62.578125 52.652344 -59.835938 56.148438 -57.285156 L 64.28125 -68.628906 C 58.890625 -72.503906 49.4375 -76.472656 40.363281 -76.472656 C 20.324219 -77.515625 10.585938 -67.304688 9.738281 -56.90625 C 9.265625 -50.855469 11.816406 -44.902344 16.730469 -40.363281 C 21.550781 -35.921875 28.453125 -33.085938 36.582031 -32.234375 C 47.644531 -30.722656 52.273438 -25.617188 51.992188 -21.175781 C 51.707031 -17.109375 47.359375 -13.046875 39.511719 -13.046875 L 39.039062 -13.046875 C 38.945312 -13.046875 28.640625 -12.476562 22.308594 -17.675781 C 20.703125 -18.90625 19.378906 -20.417969 18.148438 -22.214844 L 6.617188 -14.367188 C 8.507812 -11.53125 10.871094 -8.980469 13.519531 -6.804688 C 22.121094 0.1875 33.464844 0.945312 38 0.945312 Z M 38 0.945312 "/></g></g></g><g fill="#000000" fill-opacity="1"><g transform="translate(10.390571, 252.558041)"><g><path d="M 83.46875 -44.144531 L 48.210938 -44.144531 L 48.210938 -29.683594 L 66.925781 -29.683594 C 63.996094 -20.324219 55.867188 -13.519531 45.28125 -13.519531 C 31.949219 -13.519531 22.496094 -24.386719 22.496094 -37.71875 C 22.496094 -51.046875 31.949219 -61.917969 45.28125 -61.917969 C 50.003906 -61.917969 54.257812 -60.59375 57.664062 -58.230469 L 68.25 -68.816406 C 61.820312 -73.542969 53.882812 -76.378906 45.28125 -76.378906 C 23.914062 -76.378906 6.617188 -59.082031 6.617188 -37.71875 C 6.617188 -16.355469 23.914062 0.945312 45.28125 0.945312 C 66.644531 0.945312 83.941406 -16.355469 83.941406 -37.71875 C 83.941406 -39.890625 83.753906 -42.066406 83.46875 -44.144531 Z M 83.46875 -44.144531 "/></g></g></g><g fill="#000000" fill-opacity="1"><g transform="translate(100.942313, 252.558041)"><g><path d="M 50.101562 -75.625 L 50.101562 -26.183594 C 50.101562 -18.527344 43.957031 -12.382812 36.394531 -12.382812 L 34.503906 -12.382812 C 26.941406 -12.382812 20.796875 -18.527344 20.796875 -26.183594 L 20.796875 -75.625 L 6.617188 -75.625 L 6.617188 -26.183594 C 6.617188 -10.871094 19.1875 1.703125 34.503906 1.703125 L 36.394531 1.703125 C 51.707031 1.703125 64.183594 -10.871094 64.183594 -26.183594 L 64.183594 -75.625 Z M 50.101562 -75.625 "/></g></g></g><g fill="#000000" fill-opacity="1"><g transform="translate(171.739027, 252.558041)"><g><path d="M 50.476562 -61.632812 L 50.476562 -75.71875 L 6.617188 -75.71875 L 6.617188 0 L 50.476562 0 L 50.476562 -14.085938 L 20.796875 -14.085938 L 20.796875 -30.910156 L 38.472656 -30.910156 L 38.472656 -44.996094 L 20.796875 -44.996094 L 20.796875 -61.632812 Z M 50.476562 -61.632812 "/></g></g></g><g fill="#000000" fill-opacity="1"><g transform="translate(228.830108, 252.558041)"><g><path d="M 38 0.945312 L 39.703125 0.945312 C 55.960938 0.851562 65.226562 -9.738281 65.886719 -20.230469 C 66.644531 -31.195312 58.324219 -43.484375 38.285156 -46.035156 L 38.09375 -46.035156 C 30.816406 -46.886719 23.253906 -50.476562 23.632812 -55.773438 C 23.914062 -59.554688 29.585938 -63.050781 39.890625 -62.578125 L 40.175781 -62.578125 C 45.847656 -62.578125 52.652344 -59.835938 56.148438 -57.285156 L 64.28125 -68.628906 C 58.890625 -72.503906 49.4375 -76.472656 40.363281 -76.472656 C 20.324219 -77.515625 10.585938 -67.304688 9.738281 -56.90625 C 9.265625 -50.855469 11.816406 -44.902344 16.730469 -40.363281 C 21.550781 -35.921875 28.453125 -33.085938 36.582031 -32.234375 C 47.644531 -30.722656 52.273438 -25.617188 51.992188 -21.175781 C 51.707031 -17.109375 47.359375 -13.046875 39.511719 -13.046875 L 39.039062 -13.046875 C 38.945312 -13.046875 28.640625 -12.476562 22.308594 -17.675781 C 20.703125 -18.90625 19.378906 -20.417969 18.148438 -22.214844 L 6.617188 -14.367188 C 8.507812 -11.53125 10.871094 -8.980469 13.519531 -6.804688 C 22.121094 0.1875 33.464844 0.945312 38 0.945312 Z M 38 0.945312 "/></g></g></g><g fill="#000000" fill-opacity="1"><g transform="translate(301.328233, 252.558041)"><g><path d="M 38 0.945312 L 39.703125 0.945312 C 55.960938 0.851562 65.226562 -9.738281 65.886719 -20.230469 C 66.644531 -31.195312 58.324219 -43.484375 38.285156 -46.035156 L 38.09375 -46.035156 C 30.816406 -46.886719 23.253906 -50.476562 23.632812 -55.773438 C 23.914062 -59.554688 29.585938 -63.050781 39.890625 -62.578125 L 40.175781 -62.578125 C 45.847656 -62.578125 52.652344 -59.835938 56.148438 -57.285156 L 64.28125 -68.628906 C 58.890625 -72.503906 49.4375 -76.472656 40.363281 -76.472656 C 20.324219 -77.515625 10.585938 -67.304688 9.738281 -56.90625 C 9.265625 -50.855469 11.816406 -44.902344 16.730469 -40.363281 C 21.550781 -35.921875 28.453125 -33.085938 36.582031 -32.234375 C 47.644531 -30.722656 52.273438 -25.617188 51.992188 -21.175781 C 51.707031 -17.109375 47.359375 -13.046875 39.511719 -13.046875 L 39.039062 -13.046875 C 38.945312 -13.046875 28.640625 -12.476562 22.308594 -17.675781 C 20.703125 -18.90625 19.378906 -20.417969 18.148438 -22.214844 L 6.617188 -14.367188 C 8.507812 -11.53125 10.871094 -8.980469 13.519531 -6.804688 C 22.121094 0.1875 33.464844 0.945312 38 0.945312 Z M 38 0.945312 "/></g></g></g></svg>